# xmcd
#
# Track frame offsets:
#	150
#	16152
#	34394
#	37343
#
# Disc length: 676 seconds
#
# Revision: 1
# Processed by: cddbd v1.5.1PL0 Copyright (c) Steve Scherf et al.
# Submitted via: audiograbber 1.83.01
#
DISCID=2f02a204
DTITLE=RIK (Charles R. Benedik) - Wenn es wieder Sommer wird (Maxi)
DYEAR=1999
DGENRE=Ballad
TTITLE0=Wenn es wieder Sommer wird
TTITLE1=Niemand
TTITLE2=Intermezzo
TTITLE3=Südwind (instrumental)
EXTD=
EXTT0=
EXTT1=
EXTT2=
EXTT3=
PLAYORDER=
